<svg width="9" height="8" viewBox="0 0 9 8" fill="none" xmlns="http://www.w3.org/2000/svg">
<path fill-rule="evenodd" clip-rule="evenodd" d="M0.50769 4.41236C0.50769 4.27948 0.563118 4.15205 0.66178 4.05809C0.760442 3.96413 0.894256 3.91135 1.03379 3.91135H7.12912L4.87007 1.76102C4.77128 1.66694 4.71579 1.53935 4.71579 1.4063C4.71579 1.27326 4.77128 1.14567 4.87007 1.05159C4.96886 0.957515 5.10284 0.904663 5.24255 0.904663C5.38225 0.904663 5.51623 0.957515 5.61502 1.05159L8.77159 4.05764C8.82059 4.10418 8.85946 4.15947 8.88598 4.22034C8.9125 4.2812 8.92615 4.34646 8.92615 4.41236C8.92615 4.47826 8.9125 4.54351 8.88598 4.60438C8.85946 4.66524 8.82059 4.72053 8.77159 4.76707L5.61502 7.77312C5.51623 7.8672 5.38225 7.92005 5.24255 7.92005C5.10284 7.92005 4.96886 7.8672 4.87007 7.77312C4.77128 7.67904 4.71579 7.55145 4.71579 7.41841C4.71579 7.28536 4.77128 7.15777 4.87007 7.06369L7.12912 4.91336H1.03379C0.894256 4.91336 0.760442 4.86058 0.66178 4.76662C0.563118 4.67267 0.50769 4.54523 0.50769 4.41236Z" fill="white"/>
</svg>
